# xmcd
#
# Track frame offsets:
# 150
# 20575
# 29352
# 40706
# 53816
# 63597
# 80009
# 92603
# 100335
# 117787
# 131863
# 145879
# 155381
# 169034
# 185641
# 198235
# 216514
# 234542
# 243876
# 251985
# 271127
# 282997
# 296623
#
# Disc length: 4164 seconds
#
#
# Revision: 0
# Processed by: cddbd v1.5.2PL0 Copyright (c) Steve Scherf et al.
# Submitted via: FreeRIP 2.945 
#
DISCID=57104217
DTITLE=Herriot-J1992 - Every-Living-Thing09
DYEAR=1992
DGENRE=Jungle
TTITLE0=ELT 0901
TTITLE1=ELT 0902
TTITLE2=ELT 0903
TTITLE3=ELT 0904
TTITLE4=ELT 0905
TTITLE5=ELT 0906
TTITLE6=ELT 0907
TTITLE7=ELT 0908
TTITLE8=ELT 0909
TTITLE9=ELT 0910
TTITLE10=ELT 0911
TTITLE11=ELT 0912
TTITLE12=ELT 0913
TTITLE13=ELT 0914
TTITLE14=ELT 0915
TTITLE15=ELT 0916
TTITLE16=ELT 0917
TTITLE17=ELT 0918
TTITLE18=ELT 0919
TTITLE19=ELT 0920
TTITLE20=ELT 0921
TTITLE21=ELT 0922
TTITLE22=ELT 0923
EXTD=Every Living Thing by James Herriot 10 CDs\nread by Christopher Timothy BBC Audiobooks\njungle country
EXTT0=
EXTT1=
EXTT2=
EXTT3=
EXTT4=
EXTT5=
EXTT6=
EXTT7=
EXTT8=
EXTT9=
EXTT10=
EXTT11=
EXTT12=
EXTT13=
EXTT14=
EXTT15=
EXTT16=
EXTT17=
EXTT18=
EXTT19=
EXTT20=
EXTT21=
EXTT22=
PLAYORDER=
